# Blender v3.2.2 OBJ File: ''
# www.blender.org
o Cube
v 1.000000 1.000000 -1.000000
v 1.000000 -1.000000 -1.000000
v 1.000000 -1.000000 1.000000
v -1.000000 1.000000 -1.000000
v -1.000000 -1.000000 -1.000000
v -1.000000 -1.000000 1.000000
vt 0.375000 0.500000
vt 0.625000 0.500000
vt 0.375000 0.750000
vt 0.375000 0.250000
vt 0.125000 0.750000
vt 0.625000 0.250000
vt 0.125000 0.500000
vn 1.0000 0.0000 0.0000
vn -1.0000 0.0000 0.0000
vn 0.0000 0.7071 0.7071
vn 0.0000 -1.0000 0.0000
vn 0.0000 0.0000 -1.0000
s off
f 2/1/1 1/2/1 3/3/1
f 5/4/2 6/5/2 4/6/2
f 1/2/3 6/5/3 3/3/3
f 2/1/4 6/5/4 5/7/4
f 4/6/5 2/1/5 5/4/5
f 1/2/3 4/6/3 6/5/3
f 2/1/4 3/3/4 6/5/4
f 4/6/5 1/2/5 2/1/5
